<svg xmlns="http://www.w3.org/2000/svg" xmlns:xlink="http://www.w3.org/1999/xlink" width="500" zoomAndPan="magnify" viewBox="0 0 375 374.999991" height="500" preserveAspectRatio="xMidYMid meet" version="1.0"><defs><clipPath id="41baaccbed"><path d="M 141 159 L 313 159 L 313 368.441406 L 141 368.441406 Z M 141 159 " clip-rule="nonzero"/></clipPath><clipPath id="1065d0eb63"><path d="M 104.238281 222.25 L 108.539062 222.25 L 108.539062 225.898438 L 104.238281 225.898438 Z M 104.238281 222.25 " clip-rule="nonzero"/></clipPath><clipPath id="b6e07b877b"><path d="M 108.523438 223.574219 C 106.574219 226.574219 104.773438 225.976562 104.398438 225.375 C 104.023438 224.699219 104.398438 222.898438 105 222.449219 C 105.523438 222 107.925781 222.601562 107.925781 222.601562 " clip-rule="nonzero"/></clipPath></defs><path fill="#ff9900" d="M 194.328125 25.175781 C 195.269531 22.640625 200.796875 17.566406 203.660156 18.507812 C 228.886719 26.898438 253.988281 35.351562 278.957031 43.902344 C 279.964844 44.195312 281.039062 43.96875 281.785156 43.285156 C 287.671875 37.855469 330.425781 -6.460938 337.578125 11.585938 C 342.421875 23.777344 305.683594 52.582031 296.449219 60.582031 C 296.058594 60.972656 295.898438 61.425781 296.027344 61.945312 C 302.203125 87.078125 308.152344 112.210938 313.910156 137.375 C 315.273438 143.359375 311.894531 145.375 307.632812 148.363281 C 307.242188 148.625 306.789062 148.753906 306.332031 148.753906 C 305.488281 148.753906 304.738281 148.300781 304.316406 147.585938 L 270.472656 85.191406 C 270.246094 84.769531 269.953125 84.738281 269.59375 85.03125 L 229.375 118.09375 C 228.691406 118.648438 228.433594 119.589844 228.726562 120.4375 L 235.683594 141.277344 C 235.878906 141.828125 235.714844 142.414062 235.292969 142.773438 L 229.667969 147.875 C 229.277344 148.265625 228.726562 148.460938 228.171875 148.460938 C 227.425781 148.460938 226.742188 148.105469 226.320312 147.519531 C 219.328125 137.570312 212.925781 126.90625 203.722656 118.972656 C 199.886719 115.65625 189.679688 108.4375 187.628906 104.441406 C 187.371094 103.984375 187.371094 103.496094 187.566406 102.976562 C 189.546875 98.035156 193.125 95.824219 198.488281 98.132812 C 204.144531 100.539062 209.671875 103.042969 215.136719 105.675781 C 215.589844 105.902344 216.175781 105.839844 216.566406 105.449219 L 254.214844 67.894531 C 254.28125 67.832031 254.34375 67.734375 254.34375 67.605469 C 254.34375 67.472656 254.28125 67.34375 254.152344 67.277344 L 195.140625 27.613281 C 194.359375 27.09375 194.003906 26.117188 194.328125 25.207031 Z M 194.328125 25.175781 " fill-opacity="1" fill-rule="evenodd"/><path fill="#01b4ed" d="M 55.5 184.679688 C 32.578125 100.441406 95.261719 22.019531 180.671875 20.070312 C 181.160156 20.070312 181.582031 20.460938 181.582031 20.980469 L 181.648438 71.699219 C 181.648438 72.253906 181.355469 72.546875 180.800781 72.578125 C 127.96875 76.609375 93.246094 119.589844 104.691406 171.414062 C 104.753906 171.707031 104.59375 171.96875 104.300781 172.097656 C 88.695312 177.625 72.761719 182.046875 56.539062 185.332031 C 55.988281 185.460938 55.628906 185.234375 55.5 184.679688 Z M 55.5 184.679688 " fill-opacity="1" fill-rule="evenodd"/><path fill="#ff9900" d="M 132.359375 315.023438 C 132.328125 315.25 132.164062 315.414062 131.9375 315.414062 C 131.804688 315.414062 131.707031 315.347656 131.609375 315.285156 C 101.863281 282.121094 73.769531 241.835938 60.148438 199.019531 C 59.984375 198.464844 60.179688 198.140625 60.703125 198.011719 C 102.835938 188.160156 143.378906 173.042969 179.371094 148.789062 C 188.085938 142.933594 195.921875 135.164062 203.820312 127.75 L 205.773438 129.703125 C 158.207031 174.375 138.863281 252.730469 132.359375 315.023438 Z M 132.359375 315.023438 " fill-opacity="1" fill-rule="evenodd"/><g clip-path="url(#41baaccbed)"><path fill="#01b4ed" d="M 179.957031 367.695312 L 142.210938 328.808594 C 141.753906 328.351562 141.558594 327.800781 141.65625 327.152344 C 145.785156 295.742188 151.574219 260.042969 163.117188 229.644531 C 163.3125 229.058594 163.734375 228.832031 164.320312 228.960938 C 211.429688 238.390625 254.25 208.285156 260.621094 160.6875 C 260.683594 160.132812 261.011719 159.839844 261.597656 159.839844 L 311.4375 159.839844 C 312.085938 159.839844 312.378906 160.132812 312.316406 160.75 C 308.054688 202.140625 286.890625 242.359375 262.832031 276.136719 C 239.453125 308.910156 212.859375 339.441406 183.011719 367.757812 C 182.589844 368.148438 182.070312 368.34375 181.519531 368.34375 C 180.933594 368.34375 180.347656 368.117188 179.957031 367.695312 Z M 179.957031 367.695312 " fill-opacity="1" fill-rule="evenodd"/></g><g clip-path="url(#1065d0eb63)"><g clip-path="url(#b6e07b877b)"><path fill="#ffa629" d="M 101.398438 219.449219 L 111.53125 219.449219 L 111.53125 229.273438 L 101.398438 229.273438 Z M 101.398438 219.449219 " fill-opacity="1" fill-rule="nonzero"/></g></g></svg>