<svg xmlns="http://www.w3.org/2000/svg" xmlns:xlink="http://www.w3.org/1999/xlink" width="1300" zoomAndPan="magnify" viewBox="0 0 974.88 374.999991" height="500" preserveAspectRatio="xMidYMid meet" version="1.0"><defs><g/><clipPath id="846ca5b80a"><path d="M 107 159 L 276 159 L 276 365.4375 L 107 365.4375 Z M 107 159 " clip-rule="nonzero"/></clipPath><clipPath id="d9d3a09b0f"><path d="M 655 212 L 899 212 L 899 280.484375 L 655 280.484375 Z M 655 212 " clip-rule="nonzero"/></clipPath></defs><path fill="#ff9900" d="M 159.546875 27.03125 C 160.476562 24.53125 165.925781 19.527344 168.75 20.457031 C 193.636719 28.734375 218.394531 37.070312 243.023438 45.503906 C 244.015625 45.792969 245.074219 45.570312 245.8125 44.894531 C 251.617188 39.539062 293.789062 -4.171875 300.84375 13.628906 C 305.621094 25.652344 269.382812 54.066406 260.277344 61.957031 C 259.890625 62.339844 259.730469 62.789062 259.859375 63.304688 C 265.953125 88.09375 271.820312 112.882812 277.496094 137.703125 C 278.84375 143.605469 275.507812 145.59375 271.308594 148.542969 C 270.921875 148.800781 270.472656 148.929688 270.023438 148.929688 C 269.191406 148.929688 268.453125 148.480469 268.035156 147.773438 L 234.652344 86.234375 C 234.429688 85.816406 234.140625 85.785156 233.785156 86.074219 L 194.117188 118.6875 C 193.441406 119.234375 193.1875 120.164062 193.476562 120.996094 L 200.339844 141.554688 C 200.53125 142.097656 200.371094 142.675781 199.953125 143.027344 L 194.40625 148.0625 C 194.019531 148.449219 193.476562 148.640625 192.929688 148.640625 C 192.191406 148.640625 191.519531 148.289062 191.101562 147.710938 C 184.207031 137.898438 177.890625 127.378906 168.8125 119.554688 C 165.03125 116.28125 154.960938 109.164062 152.941406 105.21875 C 152.683594 104.769531 152.683594 104.289062 152.875 103.773438 C 154.832031 98.902344 158.359375 96.71875 163.652344 98.996094 C 169.230469 101.371094 174.683594 103.839844 180.070312 106.4375 C 180.519531 106.660156 181.097656 106.597656 181.480469 106.210938 L 218.617188 69.171875 C 218.683594 69.109375 218.746094 69.011719 218.746094 68.882812 C 218.746094 68.753906 218.683594 68.628906 218.554688 68.5625 L 160.347656 29.4375 C 159.578125 28.925781 159.226562 27.964844 159.546875 27.066406 Z M 159.546875 27.03125 " fill-opacity="1" fill-rule="evenodd"/><path fill="#01b4ed" d="M 22.609375 184.367188 C 0 101.273438 61.828125 23.921875 146.078125 21.996094 C 146.558594 21.996094 146.976562 22.382812 146.976562 22.894531 L 147.039062 72.925781 C 147.039062 73.46875 146.75 73.757812 146.203125 73.789062 C 94.09375 77.765625 59.839844 120.164062 71.128906 171.28125 C 71.195312 171.570312 71.035156 171.828125 70.746094 171.957031 C 55.351562 177.40625 39.636719 181.769531 23.636719 185.007812 C 23.089844 185.136719 22.738281 184.910156 22.609375 184.367188 Z M 22.609375 184.367188 " fill-opacity="1" fill-rule="evenodd"/><path fill="#ff9900" d="M 98.421875 312.933594 C 98.390625 313.15625 98.230469 313.316406 98.003906 313.316406 C 97.875 313.316406 97.78125 313.253906 97.683594 313.1875 C 68.339844 280.476562 40.632812 240.746094 27.195312 198.507812 C 27.035156 197.964844 27.226562 197.644531 27.738281 197.515625 C 69.300781 187.796875 109.292969 172.886719 144.792969 148.960938 C 153.386719 143.1875 161.117188 135.523438 168.910156 128.210938 L 170.835938 130.136719 C 123.917969 174.199219 104.835938 251.488281 98.421875 312.933594 Z M 98.421875 312.933594 " fill-opacity="1" fill-rule="evenodd"/><g clip-path="url(#846ca5b80a)"><path fill="#01b4ed" d="M 145.371094 364.886719 L 108.136719 326.53125 C 107.6875 326.082031 107.496094 325.535156 107.59375 324.894531 C 111.667969 293.914062 117.375 258.703125 128.757812 228.71875 C 128.953125 228.140625 129.367188 227.917969 129.945312 228.042969 C 176.414062 237.34375 218.648438 207.648438 224.9375 160.699219 C 225 160.152344 225.320312 159.863281 225.898438 159.863281 L 275.058594 159.863281 C 275.703125 159.863281 275.992188 160.152344 275.925781 160.761719 C 271.726562 201.585938 250.847656 241.257812 227.117188 274.578125 C 204.058594 306.902344 177.824219 337.015625 148.386719 364.949219 C 147.96875 365.335938 147.457031 365.527344 146.910156 365.527344 C 146.332031 365.527344 145.757812 365.300781 145.371094 364.886719 Z M 145.371094 364.886719 " fill-opacity="1" fill-rule="evenodd"/></g><g clip-path="url(#d9d3a09b0f)"><path fill="#ff9900" d="M 770.59375 215.476562 L 770.3125 215.429688 C 768.300781 214.96875 766.121094 214.808594 763.933594 215.082031 C 763.375 215.160156 762.867188 214.730469 762.804688 214.179688 C 762.734375 213.628906 763.136719 213.121094 763.699219 213.042969 C 766.128906 212.769531 768.554688 212.929688 770.804688 213.472656 C 771.355469 213.628906 771.679688 214.179688 771.546875 214.730469 C 771.433594 215.160156 771.03125 215.476562 770.59375 215.476562 Z M 749.777344 223.59375 C 749.574219 223.59375 749.363281 223.550781 749.179688 223.4375 C 748.71875 223.121094 748.585938 222.492188 748.902344 222.019531 C 749.453125 221.164062 750.0625 220.375 750.722656 219.632812 C 751.621094 218.605469 752.664062 217.671875 753.808594 216.847656 C 754.265625 216.535156 754.894531 216.613281 755.226562 217.085938 C 755.558594 217.546875 755.453125 218.179688 755 218.492188 C 753.976562 219.238281 753.046875 220.058594 752.242188 220.960938 C 751.648438 221.671875 751.097656 222.378906 750.597656 223.121094 C 750.40625 223.4375 750.097656 223.59375 749.777344 223.59375 Z M 781.933594 226.964844 C 781.46875 226.964844 781.039062 226.691406 780.917969 226.21875 C 780.339844 224.066406 779.414062 222.140625 778.152344 220.496094 C 777.804688 220.058594 777.890625 219.4375 778.328125 219.078125 C 778.773438 218.730469 779.414062 218.808594 779.761719 219.28125 C 781.191406 221.117188 782.238281 223.28125 782.886719 225.667969 C 783.027344 226.21875 782.703125 226.804688 782.160156 226.929688 Z M 893.589844 224.734375 C 893.34375 224.769531 893.089844 224.6875 892.890625 224.496094 C 892.46875 224.136719 892.425781 223.472656 892.792969 223.042969 C 894.273438 221.355469 895.734375 219.632812 897.125 217.863281 C 897.484375 217.433594 898.121094 217.355469 898.558594 217.707031 C 898.996094 218.066406 899.066406 218.730469 898.71875 219.160156 C 897.308594 220.925781 895.828125 222.695312 894.324219 224.417969 C 894.132812 224.609375 893.867188 224.734375 893.589844 224.734375 Z M 746.117188 239.828125 C 745.59375 239.828125 745.128906 239.441406 745.078125 238.925781 C 745.007812 238.226562 744.964844 237.515625 744.9375 236.808594 C 744.882812 235.164062 744.980469 233.519531 745.214844 231.90625 C 745.296875 231.320312 745.8125 230.964844 746.371094 231.042969 C 746.921875 231.121094 747.308594 231.636719 747.230469 232.179688 C 747.011719 233.675781 746.933594 235.199219 746.976562 236.773438 C 746.992188 237.394531 747.035156 238.066406 747.105469 238.691406 C 747.160156 239.285156 746.757812 239.792969 746.195312 239.828125 Z M 881.863281 237.042969 C 881.59375 237.042969 881.304688 236.929688 881.101562 236.730469 C 880.707031 236.300781 880.726562 235.671875 881.128906 235.277344 C 882.757812 233.710938 884.367188 232.144531 885.933594 230.535156 C 886.328125 230.105469 886.964844 230.105469 887.367188 230.5 C 887.769531 230.882812 887.777344 231.558594 887.386719 231.941406 C 885.808594 233.554688 884.171875 235.199219 882.539062 236.730469 C 882.351562 236.929688 882.109375 237.007812 881.863281 237.042969 Z M 779.878906 243.441406 L 779.386719 243.320312 C 778.878906 243.082031 778.6875 242.460938 778.949219 241.945312 C 779.070312 241.71875 779.1875 241.480469 779.300781 241.246094 C 780.121094 239.554688 780.726562 237.753906 781.109375 235.828125 C 781.226562 235.277344 781.757812 234.925781 782.308594 235.050781 C 782.859375 235.164062 783.21875 235.714844 783.105469 236.265625 C 782.695312 238.304688 782.03125 240.300781 781.136719 242.144531 C 781.015625 242.382812 780.882812 242.652344 780.753906 242.890625 C 780.578125 243.238281 780.234375 243.441406 779.878906 243.441406 Z M 869.054688 248.183594 C 868.738281 248.183594 868.421875 248.070312 868.222656 247.789062 C 867.871094 247.359375 867.941406 246.695312 868.386719 246.335938 C 870.136719 244.972656 871.898438 243.519531 873.613281 242.066406 C 874.039062 241.71875 874.679688 241.753906 875.046875 242.179688 C 875.414062 242.617188 875.363281 243.238281 874.933594 243.632812 C 873.191406 245.085938 871.414062 246.574219 869.648438 247.949219 C 869.472656 248.105469 869.261719 248.183594 869.054688 248.183594 Z M 752.515625 255.324219 C 752.199219 255.324219 751.882812 255.203125 751.675781 254.929688 C 750.222656 253.050781 748.980469 251.046875 747.972656 249.007812 C 747.71875 248.5 747.929688 247.914062 748.4375 247.632812 C 748.945312 247.394531 749.546875 247.597656 749.800781 248.105469 C 750.746094 250.03125 751.917969 251.910156 753.292969 253.679688 C 753.632812 254.109375 753.546875 254.773438 753.109375 255.121094 C 752.925781 255.246094 752.722656 255.324219 752.515625 255.324219 Z M 768.765625 256.113281 C 768.449219 256.113281 768.132812 255.988281 767.925781 255.71875 C 767.582031 255.28125 767.660156 254.617188 768.097656 254.300781 C 769.988281 252.8125 771.617188 251.359375 773.085938 249.871094 C 773.480469 249.480469 774.121094 249.480469 774.53125 249.871094 C 774.925781 250.265625 774.933594 250.886719 774.539062 251.324219 C 773.007812 252.855469 771.308594 254.378906 769.359375 255.910156 C 769.175781 256.03125 768.972656 256.113281 768.765625 256.113281 Z M 855.191406 257.992188 C 854.84375 257.992188 854.492188 257.835938 854.289062 257.519531 C 853.992188 257.011719 854.140625 256.382812 854.613281 256.113281 C 856.488281 254.929688 858.386719 253.679688 860.242188 252.382812 C 860.703125 252.070312 861.34375 252.183594 861.660156 252.65625 C 861.984375 253.085938 861.867188 253.757812 861.40625 254.0625 C 859.515625 255.359375 857.597656 256.621094 855.699219 257.835938 Z M 765.308594 266.339844 L 764.765625 266.183594 C 762.875 265.089844 761.089844 263.875 759.425781 262.578125 C 757.949219 263.480469 756.445312 264.347656 754.9375 265.125 C 754.449219 265.40625 753.828125 265.246094 753.554688 264.738281 C 753.285156 264.222656 753.46875 263.636719 753.96875 263.367188 C 755.925781 262.308594 757.886719 261.167969 759.796875 259.988281 C 760.277344 259.671875 760.898438 259.832031 761.195312 260.304688 C 761.40625 260.652344 761.386719 261.046875 761.203125 261.363281 C 762.640625 262.464844 764.1875 263.480469 765.796875 264.425781 C 766.289062 264.738281 766.445312 265.359375 766.15625 265.832031 C 765.972656 266.148438 765.648438 266.304688 765.308594 266.339844 Z M 840.308594 266.113281 C 839.914062 266.148438 839.527344 265.914062 839.355469 265.519531 C 839.117188 265.011719 839.335938 264.425781 839.84375 264.1875 C 841.839844 263.242188 843.867188 262.226562 845.871094 261.167969 C 846.363281 260.933594 846.984375 261.089844 847.246094 261.597656 C 847.507812 262.105469 847.324219 262.699219 846.828125 262.972656 C 844.796875 264.066406 842.742188 265.089844 840.703125 266.035156 Z M 739.074219 272.386719 C 738.652344 272.386719 738.25 272.152344 738.085938 271.714844 C 737.894531 271.207031 738.15625 270.621094 738.679688 270.382812 C 740.761719 269.597656 742.863281 268.738281 744.902344 267.835938 C 745.417969 267.601562 746.023438 267.835938 746.25 268.34375 C 746.476562 268.851562 746.25 269.449219 745.734375 269.675781 C 743.648438 270.621094 741.523438 271.484375 739.40625 272.308594 Z M 662.480469 275.40625 L 662.140625 275.328125 C 659.96875 274.664062 657.800781 273.875 655.683594 273.050781 C 655.15625 272.851562 654.894531 272.265625 655.105469 271.714844 C 655.304688 271.207031 655.902344 270.933594 656.425781 271.171875 C 658.5 271.949219 660.636719 272.738281 662.761719 273.402344 C 663.296875 273.558594 663.59375 274.144531 663.425781 274.699219 C 663.285156 275.089844 662.902344 275.363281 662.480469 275.40625 Z M 780.910156 272.929688 L 780.59375 272.894531 C 778.398438 272.265625 776.210938 271.519531 774.074219 270.699219 C 773.550781 270.460938 773.296875 269.875 773.5 269.367188 C 773.707031 268.851562 774.292969 268.582031 774.820312 268.773438 C 776.894531 269.597656 779.027344 270.347656 781.15625 270.933594 C 781.695312 271.09375 782.011719 271.679688 781.855469 272.1875 C 781.730469 272.660156 781.339844 272.929688 780.910156 272.929688 Z M 824.453125 272.152344 C 823.996094 272.152344 823.566406 271.835938 823.4375 271.40625 C 823.28125 270.855469 823.59375 270.304688 824.128906 270.148438 C 826.246094 269.515625 828.398438 268.816406 830.523438 268.03125 C 831.050781 267.871094 831.636719 268.152344 831.828125 268.660156 C 832.019531 269.210938 831.75 269.753906 831.214844 269.953125 C 829.046875 270.734375 826.859375 271.484375 824.695312 272.109375 Z M 722.851562 277.324219 C 722.378906 277.367188 721.941406 277.015625 721.828125 276.542969 C 721.695312 275.992188 722.035156 275.441406 722.589844 275.328125 C 724.757812 274.820312 726.953125 274.226562 729.097656 273.605469 C 729.640625 273.445312 730.210938 273.761719 730.367188 274.304688 C 730.523438 274.855469 730.210938 275.40625 729.675781 275.5625 C 727.488281 276.230469 725.257812 276.78125 723.050781 277.324219 Z M 679.011719 279.246094 L 678.820312 279.246094 C 676.570312 278.898438 674.292969 278.460938 672.082031 277.996094 C 671.527344 277.875 671.179688 277.324219 671.300781 276.78125 C 671.414062 276.230469 671.957031 275.878906 672.507812 275.992188 C 674.6875 276.464844 676.910156 276.894531 679.125 277.210938 C 679.683594 277.289062 680.070312 277.839844 679.980469 278.382812 C 679.902344 278.855469 679.492188 279.210938 679.011719 279.246094 Z M 797.632812 275.597656 L 797.5625 275.597656 C 795.261719 275.519531 792.949219 275.328125 790.703125 275.011719 C 790.140625 274.933594 789.757812 274.425781 789.828125 273.875 C 789.90625 273.324219 790.421875 272.929688 790.972656 273.007812 C 793.160156 273.289062 795.410156 273.480469 797.640625 273.605469 C 798.210938 273.605469 798.648438 274.066406 798.621094 274.664062 C 798.601562 275.171875 798.164062 275.597656 797.632812 275.597656 Z M 807.808594 275.328125 C 807.273438 275.363281 806.8125 274.976562 806.757812 274.425781 C 806.707031 273.875 807.117188 273.367188 807.675781 273.324219 C 809.863281 273.085938 812.105469 272.816406 814.328125 272.421875 C 814.878906 272.34375 815.402344 272.703125 815.507812 273.246094 C 815.605469 273.796875 815.230469 274.347656 814.675781 274.425781 C 812.402344 274.820312 810.109375 275.125 807.871094 275.328125 Z M 706.101562 280.035156 C 705.558594 280.035156 705.105469 279.640625 705.050781 279.089844 C 705 278.539062 705.417969 278.03125 705.980469 277.996094 C 708.195312 277.796875 710.441406 277.523438 712.664062 277.210938 C 713.214844 277.128906 713.742188 277.523438 713.820312 278.074219 C 713.898438 278.617188 713.515625 279.132812 712.960938 279.210938 C 710.703125 279.5625 708.414062 279.835938 706.15625 280.035156 Z M 695.925781 280.507812 L 695.890625 280.507812 C 693.617188 280.507812 691.304688 280.429688 689.046875 280.304688 C 688.488281 280.273438 688.058594 279.800781 688.085938 279.210938 C 688.121094 278.660156 688.601562 278.234375 689.160156 278.269531 C 691.382812 278.382812 693.652344 278.460938 695.890625 278.460938 C 696.449219 278.460938 696.914062 278.898438 696.914062 279.484375 C 696.914062 280.035156 696.476562 280.464844 695.925781 280.507812 " fill-opacity="1" fill-rule="nonzero"/></g><path fill="#ff9701" d="M 967.652344 203.25 L 970.652344 199.191406 C 972.140625 197.195312 972.035156 194.289062 970.398438 191.820312 L 951.964844 159.261719 C 970.53125 133.902344 974.539062 122.394531 970.960938 119.769531 C 967.390625 117.101562 957.539062 124.269531 938.652344 149.382812 L 901.964844 141.105469 C 899.234375 140.308594 896.554688 141.027344 895.136719 142.933594 L 892.03125 147.117188 L 927.769531 164.554688 C 921.378906 173.832031 916.121094 182.34375 912.488281 189.195312 L 890.804688 187.246094 L 887.671875 191.464844 L 907.433594 200.582031 C 906.722656 203.050781 906.714844 204.640625 907.519531 205.238281 C 908.332031 205.875 909.910156 205.359375 912.078125 203.96875 L 926.464844 220.242188 L 929.597656 216.027344 L 921.46875 195.839844 C 926.972656 190.351562 933.613281 182.828125 940.691406 173.988281 L 967.652344 203.25 " fill-opacity="1" fill-rule="nonzero"/><g fill="#00b4ed" fill-opacity="1"><g transform="translate(288.357364, 192.871153)"><g><path d="M 72.703125 -90.6875 L 72.703125 -75.609375 L 46.515625 -75.609375 L 46.515625 0 L 28.65625 0 L 28.65625 -75.609375 L 2.484375 -75.609375 L 2.484375 -90.6875 Z M 72.703125 -90.6875 "/></g></g></g><g fill="#00b4ed" fill-opacity="1"><g transform="translate(352.084763, 192.871153)"><g><path d="M 9.859375 0 L 9.859375 -68.421875 L 26.546875 -68.421875 L 26.546875 -58.25 L 27.84375 -58 C 29.5 -61.800781 31.671875 -64.585938 34.359375 -66.359375 C 37.046875 -68.140625 40.3125 -69.03125 44.15625 -69.03125 C 48.050781 -69.03125 51.007812 -68.367188 53.03125 -67.046875 L 50.125 -52.234375 L 48.8125 -51.984375 C 47.695312 -52.429688 46.625 -52.757812 45.59375 -52.96875 C 44.5625 -53.175781 43.300781 -53.28125 41.8125 -53.28125 C 37.007812 -53.28125 33.347656 -51.59375 30.828125 -48.21875 C 28.304688 -44.851562 27.046875 -39.445312 27.046875 -32 L 27.046875 0 Z M 9.859375 0 "/></g></g></g><g fill="#00b4ed" fill-opacity="1"><g transform="translate(394.293412, 192.871153)"><g><path d="M 26.671875 1.296875 C 22.285156 1.296875 18.476562 0.492188 15.25 -1.109375 C 12.03125 -2.722656 9.550781 -5.09375 7.8125 -8.21875 C 6.070312 -11.34375 5.203125 -15.09375 5.203125 -19.46875 C 5.203125 -23.53125 6.070312 -26.9375 7.8125 -29.6875 C 9.550781 -32.4375 12.238281 -34.6875 15.875 -36.4375 C 19.519531 -38.195312 24.273438 -39.550781 30.140625 -40.5 C 34.234375 -41.164062 37.34375 -41.890625 39.46875 -42.671875 C 41.601562 -43.460938 43.039062 -44.351562 43.78125 -45.34375 C 44.53125 -46.332031 44.90625 -47.59375 44.90625 -49.125 C 44.90625 -51.3125 44.140625 -52.984375 42.609375 -54.140625 C 41.078125 -55.304688 38.535156 -55.890625 34.984375 -55.890625 C 31.179688 -55.890625 27.5625 -55.039062 24.125 -53.34375 C 20.695312 -51.644531 17.722656 -49.410156 15.203125 -46.640625 L 13.953125 -46.640625 L 6.765625 -57.5 C 10.234375 -61.34375 14.46875 -64.335938 19.46875 -66.484375 C 24.476562 -68.640625 29.941406 -69.71875 35.859375 -69.71875 C 44.910156 -69.71875 51.460938 -67.796875 55.515625 -63.953125 C 59.566406 -60.109375 61.59375 -54.648438 61.59375 -47.578125 L 61.59375 -17.859375 C 61.59375 -14.804688 62.9375 -13.28125 65.625 -13.28125 C 66.65625 -13.28125 67.664062 -13.460938 68.65625 -13.828125 L 69.53125 -13.578125 L 70.765625 -1.609375 C 69.816406 -0.992188 68.492188 -0.488281 66.796875 -0.09375 C 65.109375 0.300781 63.25 0.5 61.21875 0.5 C 57.125 0.5 53.925781 -0.285156 51.625 -1.859375 C 49.332031 -3.429688 47.691406 -5.890625 46.703125 -9.234375 L 45.40625 -9.359375 C 42.050781 -2.253906 35.804688 1.296875 26.671875 1.296875 Z M 32.125 -11.53125 C 36.09375 -11.53125 39.265625 -12.863281 41.640625 -15.53125 C 44.023438 -18.195312 45.21875 -21.910156 45.21875 -26.671875 L 45.21875 -33.625 L 44.046875 -33.859375 C 43.003906 -33.035156 41.644531 -32.34375 39.96875 -31.78125 C 38.300781 -31.226562 35.894531 -30.679688 32.75 -30.140625 C 29.03125 -29.523438 26.351562 -28.460938 24.71875 -26.953125 C 23.082031 -25.441406 22.265625 -23.300781 22.265625 -20.53125 C 22.265625 -17.59375 23.132812 -15.359375 24.875 -13.828125 C 26.613281 -12.296875 29.03125 -11.53125 32.125 -11.53125 Z M 32.125 -11.53125 "/></g></g></g><g fill="#00b4ed" fill-opacity="1"><g transform="translate(454.982139, 192.871153)"><g><path d="M 47.078125 0 L 26.609375 0 L 1.296875 -68.421875 L 19.296875 -68.421875 L 36.28125 -19.65625 L 37.71875 -19.65625 L 54.765625 -68.421875 L 72.328125 -68.421875 Z M 47.078125 0 "/></g></g></g><g fill="#00b4ed" fill-opacity="1"><g transform="translate(517.09718, 192.871153)"><g><path d="M 67.609375 -30.328125 L 23.625 -30.328125 C 24.125 -24.378906 25.820312 -20.050781 28.71875 -17.34375 C 31.613281 -14.632812 35.5625 -13.28125 40.5625 -13.28125 C 44.488281 -13.28125 47.671875 -14.007812 50.109375 -15.46875 C 52.554688 -16.9375 54.523438 -19.160156 56.015625 -22.140625 L 57.3125 -22.140625 L 68.71875 -14.828125 C 66.488281 -10.023438 63.117188 -6.132812 58.609375 -3.15625 C 54.109375 -0.1875 48.09375 1.296875 40.5625 1.296875 C 33.488281 1.296875 27.378906 -0.046875 22.234375 -2.734375 C 17.085938 -5.421875 13.117188 -9.421875 10.328125 -14.734375 C 7.535156 -20.046875 6.140625 -26.523438 6.140625 -34.171875 C 6.140625 -41.953125 7.609375 -48.507812 10.546875 -53.84375 C 13.484375 -59.175781 17.453125 -63.15625 22.453125 -65.78125 C 27.453125 -68.40625 33.078125 -69.71875 39.328125 -69.71875 C 49.003906 -69.71875 56.414062 -67.148438 61.5625 -62.015625 C 66.707031 -56.890625 69.28125 -49.367188 69.28125 -39.453125 C 69.28125 -35.847656 69.15625 -33.054688 68.90625 -31.078125 Z M 52.84375 -41.4375 C 52.675781 -46.644531 51.46875 -50.4375 49.21875 -52.8125 C 46.96875 -55.1875 43.671875 -56.375 39.328125 -56.375 C 30.640625 -56.375 25.53125 -51.394531 24 -41.4375 Z M 52.84375 -41.4375 "/></g></g></g><g fill="#00b4ed" fill-opacity="1"><g transform="translate(580.01841, 192.871153)"><g><path d="M 28.40625 1.296875 C 22.25 1.296875 17.546875 -0.363281 14.296875 -3.6875 C 11.046875 -7.019531 9.421875 -12.078125 9.421875 -18.859375 L 9.421875 -95.890625 L 26.609375 -95.890625 L 26.609375 -19.53125 C 26.609375 -15.363281 28.34375 -13.28125 31.8125 -13.28125 C 32.8125 -13.28125 33.867188 -13.441406 34.984375 -13.765625 L 35.859375 -13.515625 L 37.40625 -0.3125 C 36.445312 0.1875 35.179688 0.578125 33.609375 0.859375 C 32.046875 1.148438 30.3125 1.296875 28.40625 1.296875 Z M 28.40625 1.296875 "/></g></g></g><g fill="#002f6d" fill-opacity="1"><g transform="translate(607.934956, 192.871153)"><g/></g></g><g fill="#00b4ed" fill-opacity="1"><g transform="translate(626.458135, 192.871153)"><g><path d="M 29.703125 -90.6875 L 29.703125 -15.015625 L 70.46875 -15.015625 L 70.46875 0 L 11.78125 0 L 11.78125 -90.6875 Z M 29.703125 -90.6875 "/></g></g></g><g fill="#00b4ed" fill-opacity="1"><g transform="translate(688.449149, 192.871153)"><g><path d="M 26.671875 1.296875 C 22.285156 1.296875 18.476562 0.492188 15.25 -1.109375 C 12.03125 -2.722656 9.550781 -5.09375 7.8125 -8.21875 C 6.070312 -11.34375 5.203125 -15.09375 5.203125 -19.46875 C 5.203125 -23.53125 6.070312 -26.9375 7.8125 -29.6875 C 9.550781 -32.4375 12.238281 -34.6875 15.875 -36.4375 C 19.519531 -38.195312 24.273438 -39.550781 30.140625 -40.5 C 34.234375 -41.164062 37.34375 -41.890625 39.46875 -42.671875 C 41.601562 -43.460938 43.039062 -44.351562 43.78125 -45.34375 C 44.53125 -46.332031 44.90625 -47.59375 44.90625 -49.125 C 44.90625 -51.3125 44.140625 -52.984375 42.609375 -54.140625 C 41.078125 -55.304688 38.535156 -55.890625 34.984375 -55.890625 C 31.179688 -55.890625 27.5625 -55.039062 24.125 -53.34375 C 20.695312 -51.644531 17.722656 -49.410156 15.203125 -46.640625 L 13.953125 -46.640625 L 6.765625 -57.5 C 10.234375 -61.34375 14.46875 -64.335938 19.46875 -66.484375 C 24.476562 -68.640625 29.941406 -69.71875 35.859375 -69.71875 C 44.910156 -69.71875 51.460938 -67.796875 55.515625 -63.953125 C 59.566406 -60.109375 61.59375 -54.648438 61.59375 -47.578125 L 61.59375 -17.859375 C 61.59375 -14.804688 62.9375 -13.28125 65.625 -13.28125 C 66.65625 -13.28125 67.664062 -13.460938 68.65625 -13.828125 L 69.53125 -13.578125 L 70.765625 -1.609375 C 69.816406 -0.992188 68.492188 -0.488281 66.796875 -0.09375 C 65.109375 0.300781 63.25 0.5 61.21875 0.5 C 57.125 0.5 53.925781 -0.285156 51.625 -1.859375 C 49.332031 -3.429688 47.691406 -5.890625 46.703125 -9.234375 L 45.40625 -9.359375 C 42.050781 -2.253906 35.804688 1.296875 26.671875 1.296875 Z M 32.125 -11.53125 C 36.09375 -11.53125 39.265625 -12.863281 41.640625 -15.53125 C 44.023438 -18.195312 45.21875 -21.910156 45.21875 -26.671875 L 45.21875 -33.625 L 44.046875 -33.859375 C 43.003906 -33.035156 41.644531 -32.34375 39.96875 -31.78125 C 38.300781 -31.226562 35.894531 -30.679688 32.75 -30.140625 C 29.03125 -29.523438 26.351562 -28.460938 24.71875 -26.953125 C 23.082031 -25.441406 22.265625 -23.300781 22.265625 -20.53125 C 22.265625 -17.59375 23.132812 -15.359375 24.875 -13.828125 C 26.613281 -12.296875 29.03125 -11.53125 32.125 -11.53125 Z M 32.125 -11.53125 "/></g></g></g><g fill="#00b4ed" fill-opacity="1"><g transform="translate(749.137876, 192.871153)"><g><path d="M 9.859375 0 L 9.859375 -68.421875 L 26.359375 -68.421875 L 26.359375 -58.375 L 27.65625 -58.0625 C 31.914062 -65.832031 38.820312 -69.71875 48.375 -69.71875 C 56.28125 -69.71875 62.082031 -67.566406 65.78125 -63.265625 C 69.476562 -58.960938 71.328125 -52.695312 71.328125 -44.46875 L 71.328125 0 L 54.15625 0 L 54.15625 -42.359375 C 54.15625 -46.910156 53.242188 -50.1875 51.421875 -52.1875 C 49.597656 -54.195312 46.679688 -55.203125 42.671875 -55.203125 C 37.753906 -55.203125 33.921875 -53.609375 31.171875 -50.421875 C 28.421875 -47.242188 27.046875 -42.242188 27.046875 -35.421875 L 27.046875 0 Z M 9.859375 0 "/></g></g></g><g fill="#00b4ed" fill-opacity="1"><g transform="translate(817.826359, 192.871153)"><g><path d="M 67.609375 -30.328125 L 23.625 -30.328125 C 24.125 -24.378906 25.820312 -20.050781 28.71875 -17.34375 C 31.613281 -14.632812 35.5625 -13.28125 40.5625 -13.28125 C 44.488281 -13.28125 47.671875 -14.007812 50.109375 -15.46875 C 52.554688 -16.9375 54.523438 -19.160156 56.015625 -22.140625 L 57.3125 -22.140625 L 68.71875 -14.828125 C 66.488281 -10.023438 63.117188 -6.132812 58.609375 -3.15625 C 54.109375 -0.1875 48.09375 1.296875 40.5625 1.296875 C 33.488281 1.296875 27.378906 -0.046875 22.234375 -2.734375 C 17.085938 -5.421875 13.117188 -9.421875 10.328125 -14.734375 C 7.535156 -20.046875 6.140625 -26.523438 6.140625 -34.171875 C 6.140625 -41.953125 7.609375 -48.507812 10.546875 -53.84375 C 13.484375 -59.175781 17.453125 -63.15625 22.453125 -65.78125 C 27.453125 -68.40625 33.078125 -69.71875 39.328125 -69.71875 C 49.003906 -69.71875 56.414062 -67.148438 61.5625 -62.015625 C 66.707031 -56.890625 69.28125 -49.367188 69.28125 -39.453125 C 69.28125 -35.847656 69.15625 -33.054688 68.90625 -31.078125 Z M 52.84375 -41.4375 C 52.675781 -46.644531 51.46875 -50.4375 49.21875 -52.8125 C 46.96875 -55.1875 43.671875 -56.375 39.328125 -56.375 C 30.640625 -56.375 25.53125 -51.394531 24 -41.4375 Z M 52.84375 -41.4375 "/></g></g></g><g fill="#ff9900" fill-opacity="1"><g transform="translate(288.357364, 284.685365)"><g><path d="M 42.53125 1.125 C 35.363281 1.125 29.046875 -0.363281 23.578125 -3.34375 C 18.117188 -6.332031 13.84375 -10.816406 10.75 -16.796875 C 7.664062 -22.773438 6.125 -30.144531 6.125 -38.90625 C 6.125 -47.675781 7.664062 -55.050781 10.75 -61.03125 C 13.84375 -67.007812 18.117188 -71.488281 23.578125 -74.46875 C 29.046875 -77.445312 35.363281 -78.9375 42.53125 -78.9375 C 50.019531 -78.9375 56.378906 -77.472656 61.609375 -74.546875 C 66.847656 -71.617188 70.582031 -67.15625 72.8125 -61.15625 L 61.59375 -54.296875 L 60.25 -54.34375 C 58.582031 -58.394531 56.320312 -61.296875 53.46875 -63.046875 C 50.613281 -64.804688 46.96875 -65.6875 42.53125 -65.6875 C 36.070312 -65.6875 31.03125 -63.546875 27.40625 -59.265625 C 23.789062 -54.992188 21.984375 -48.207031 21.984375 -38.90625 C 21.984375 -29.644531 23.789062 -22.875 27.40625 -18.59375 C 31.03125 -14.320312 36.070312 -12.1875 42.53125 -12.1875 C 52.644531 -12.1875 58.835938 -17.101562 61.109375 -26.9375 L 62.4375 -26.9375 L 73.78125 -21.03125 C 71.644531 -13.644531 68.003906 -8.101562 62.859375 -4.40625 C 57.710938 -0.71875 50.9375 1.125 42.53125 1.125 Z M 42.53125 1.125 "/></g></g></g><g fill="#ff9900" fill-opacity="1"><g transform="translate(354.856672, 284.685365)"><g><path d="M 34.125 1.125 C 28.375 1.125 23.320312 -0.0546875 18.96875 -2.421875 C 14.625 -4.785156 11.253906 -8.242188 8.859375 -12.796875 C 6.460938 -17.359375 5.265625 -22.867188 5.265625 -29.328125 C 5.265625 -35.785156 6.460938 -41.300781 8.859375 -45.875 C 11.253906 -50.457031 14.625 -53.925781 18.96875 -56.28125 C 23.320312 -58.644531 28.375 -59.828125 34.125 -59.828125 C 39.875 -59.828125 44.921875 -58.644531 49.265625 -56.28125 C 53.609375 -53.925781 56.988281 -50.457031 59.40625 -45.875 C 61.820312 -41.300781 63.03125 -35.785156 63.03125 -29.328125 C 63.03125 -22.867188 61.820312 -17.359375 59.40625 -12.796875 C 56.988281 -8.242188 53.609375 -4.785156 49.265625 -2.421875 C 44.921875 -0.0546875 39.875 1.125 34.125 1.125 Z M 34.125 -11.390625 C 43.238281 -11.390625 47.796875 -17.367188 47.796875 -29.328125 C 47.796875 -35.535156 46.625 -40.085938 44.28125 -42.984375 C 41.945312 -45.878906 38.5625 -47.328125 34.125 -47.328125 C 25 -47.328125 20.4375 -41.328125 20.4375 -29.328125 C 20.4375 -17.367188 25 -11.390625 34.125 -11.390625 Z M 34.125 -11.390625 "/></g></g></g><g fill="#ff9900" fill-opacity="1"><g transform="translate(413.267086, 284.685365)"><g><path d="M 8.46875 0 L 8.46875 -58.71875 L 22.625 -58.71875 L 22.625 -50.09375 L 23.734375 -49.828125 C 27.390625 -56.492188 33.316406 -59.828125 41.515625 -59.828125 C 48.296875 -59.828125 53.273438 -57.984375 56.453125 -54.296875 C 59.628906 -50.609375 61.21875 -45.234375 61.21875 -38.171875 L 61.21875 0 L 46.46875 0 L 46.46875 -36.359375 C 46.46875 -40.265625 45.6875 -43.078125 44.125 -44.796875 C 42.5625 -46.515625 40.0625 -47.375 36.625 -47.375 C 32.394531 -47.375 29.097656 -46.003906 26.734375 -43.265625 C 24.378906 -40.535156 23.203125 -36.242188 23.203125 -30.390625 L 23.203125 0 Z M 8.46875 0 "/></g></g></g><g fill="#ff9900" fill-opacity="1"><g transform="translate(472.209655, 284.685365)"><g><path d="M 8.46875 0 L 8.46875 -58.71875 L 22.625 -58.71875 L 22.625 -50.09375 L 23.734375 -49.828125 C 27.390625 -56.492188 33.316406 -59.828125 41.515625 -59.828125 C 48.296875 -59.828125 53.273438 -57.984375 56.453125 -54.296875 C 59.628906 -50.609375 61.21875 -45.234375 61.21875 -38.171875 L 61.21875 0 L 46.46875 0 L 46.46875 -36.359375 C 46.46875 -40.265625 45.6875 -43.078125 44.125 -44.796875 C 42.5625 -46.515625 40.0625 -47.375 36.625 -47.375 C 32.394531 -47.375 29.097656 -46.003906 26.734375 -43.265625 C 24.378906 -40.535156 23.203125 -36.242188 23.203125 -30.390625 L 23.203125 0 Z M 8.46875 0 "/></g></g></g><g fill="#ff9900" fill-opacity="1"><g transform="translate(531.152243, 284.685365)"><g><path d="M 58.015625 -26.03125 L 20.28125 -26.03125 C 20.707031 -20.914062 22.160156 -17.195312 24.640625 -14.875 C 27.128906 -12.550781 30.519531 -11.390625 34.8125 -11.390625 C 38.1875 -11.390625 40.921875 -12.019531 43.015625 -13.28125 C 45.109375 -14.539062 46.789062 -16.445312 48.0625 -19 L 49.1875 -19 L 58.984375 -12.71875 C 57.066406 -8.601562 54.171875 -5.265625 50.296875 -2.703125 C 46.429688 -0.148438 41.269531 1.125 34.8125 1.125 C 28.738281 1.125 23.492188 -0.0234375 19.078125 -2.328125 C 14.660156 -4.640625 11.253906 -8.078125 8.859375 -12.640625 C 6.460938 -17.203125 5.265625 -22.765625 5.265625 -29.328125 C 5.265625 -36.003906 6.523438 -41.628906 9.046875 -46.203125 C 11.566406 -50.785156 14.972656 -54.203125 19.265625 -56.453125 C 23.554688 -58.703125 28.382812 -59.828125 33.75 -59.828125 C 42.050781 -59.828125 48.410156 -57.625 52.828125 -53.21875 C 57.242188 -48.820312 59.453125 -42.367188 59.453125 -33.859375 C 59.453125 -30.765625 59.347656 -28.367188 59.140625 -26.671875 Z M 45.359375 -35.5625 C 45.210938 -40.03125 44.171875 -43.285156 42.234375 -45.328125 C 40.304688 -47.367188 37.476562 -48.390625 33.75 -48.390625 C 26.289062 -48.390625 21.90625 -44.113281 20.59375 -35.5625 Z M 45.359375 -35.5625 "/></g></g></g><g fill="#ff9900" fill-opacity="1"><g transform="translate(585.145728, 284.685365)"><g><path d="M 34.234375 1.125 C 28.546875 1.125 23.519531 -0.0546875 19.15625 -2.421875 C 14.789062 -4.785156 11.382812 -8.253906 8.9375 -12.828125 C 6.488281 -17.398438 5.265625 -22.898438 5.265625 -29.328125 C 5.265625 -35.785156 6.488281 -41.300781 8.9375 -45.875 C 11.382812 -50.457031 14.773438 -53.925781 19.109375 -56.28125 C 23.441406 -58.644531 28.390625 -59.828125 33.953125 -59.828125 C 46.335938 -59.828125 54.269531 -55.335938 57.75 -46.359375 L 47.640625 -39.125 L 46.515625 -39.125 C 45.316406 -41.894531 43.75 -43.953125 41.8125 -45.296875 C 39.875 -46.648438 37.253906 -47.328125 33.953125 -47.328125 C 29.703125 -47.328125 26.382812 -45.851562 24 -42.90625 C 21.625 -39.957031 20.4375 -35.429688 20.4375 -29.328125 C 20.4375 -23.296875 21.644531 -18.796875 24.0625 -15.828125 C 26.476562 -12.867188 29.867188 -11.390625 34.234375 -11.390625 C 37.421875 -11.390625 40.125 -12.25 42.34375 -13.96875 C 44.5625 -15.6875 46.148438 -18.164062 47.109375 -21.40625 L 48.234375 -21.5 L 58.71875 -15.75 C 57.226562 -10.78125 54.46875 -6.722656 50.4375 -3.578125 C 46.40625 -0.441406 41.003906 1.125 34.234375 1.125 Z M 34.234375 1.125 "/></g></g></g><g fill="#ff9900" fill-opacity="1"><g transform="translate(635.839798, 284.685365)"><g><path d="M 40.515625 -14 L 44.34375 -3.09375 C 42.75 -1.78125 40.742188 -0.75 38.328125 0 C 35.910156 0.75 33.175781 1.125 30.125 1.125 C 23.769531 1.125 18.941406 -0.601562 15.640625 -4.0625 C 12.347656 -7.53125 10.703125 -12.5625 10.703125 -19.15625 L 10.703125 -47.0625 L 1.75 -47.0625 L 1.75 -58.765625 L 10.703125 -58.765625 L 10.703125 -70.203125 L 25.4375 -72.609375 L 25.4375 -58.765625 L 42.109375 -58.765625 L 42.109375 -47.0625 L 25.4375 -47.0625 L 25.4375 -20.234375 C 25.4375 -17.316406 26.039062 -15.191406 27.25 -13.859375 C 28.457031 -12.535156 30.21875 -11.875 32.53125 -11.875 C 35.15625 -11.875 37.441406 -12.582031 39.390625 -14 Z M 40.515625 -14 "/></g></g></g></svg>